<?xml version="1.0" standalone="no"?>
<!DOCTYPE svg PUBLIC "-//W3C//DTD SVG 1.1//EN" "http://www.w3.org/Graphics/SVG/1.1/DTD/svg11.dtd" >
<!--
2013-9-30: Created.
-->
<svg>
<metadata>
Created by iconfont
</metadata>
<defs>

<font id="iconfont" horiz-adv-x="1024" >
  <font-face
    font-family="iconfont"
    font-weight="500"
    font-stretch="normal"
    units-per-em="1024"
    ascent="896"
    descent="-128"
  />
    <missing-glyph />
    
    <glyph glyph-name="guanzhu" unicode="&#58900;" d="M988.339912-0.943163 872.089162-0.943163 872.089162-111.847743C872.089162-120.606361 864.581775-127.772503 855.330248-127.772503L811.764654-127.772503C802.588958-127.772503 795.081571-120.606361 795.081571-111.847743L795.081571-0.943163 678.754989-0.943163C669.503462-0.943163 661.996075 6.147147 661.996075 15.019513L661.996075 56.461806C661.996075 65.372089 669.503462 72.500315 678.754989 72.500315L795.081571 72.500315 795.081571 183.366979C795.081571 192.163513 802.588958 199.329655 811.764654 199.329655L855.330248 199.329655C864.581775 199.329655 872.089162 192.163513 872.089162 183.366979L872.089162 72.500315 988.339912 72.500315C997.591439 72.500315 1005.022994 65.296257 1005.098826 56.461806L1005.098826 15.019513C1005.098826 6.147147 997.591439-0.943163 988.339912-0.943163ZM623.359573 331.543081C665.977265 318.272448 705.978746 299.124819 742.26445 275.086015 750.416411 269.701929 755.76258 260.639982 755.686748 250.288888 755.686748 233.909135 742.036953 220.562669 725.278039 220.562669 718.604806 220.562669 712.424483 222.723886 707.381642 226.363832L707.30581 226.212167C643.075943 268.564446 565.689192 293.285741 482.387529 293.285741 260.085459 293.285741 79.794424 117.12756 79.794424-100.093753 78.770689-115.601437 65.424223-127.924168 49.309883-127.924168 33.157626-127.924168 20.076573-115.601437 19.052838-100.093753 18.977006-100.093753 18.901174-97.705039 18.901174-97.477543 20.076573 103.591513 155.247454 273.493539 341.529233 331.543081 243.440293 381.326915 176.404636 481.425408 176.404636 596.955752 176.404636 762.156182 313.39549 896 482.463361 896 651.531233 896 788.560003 762.156182 788.560003 596.955752 788.560003 481.50124 721.486429 381.326915 623.359573 331.543081ZM482.463361 836.244233C347.216648 836.244233 237.601214 729.093346 237.601214 596.955752 237.601214 464.818158 347.216648 357.705188 482.463361 357.705188 617.710075 357.705188 727.363424 464.818158 727.363424 596.955752 727.363424 729.093346 617.710075 836.244233 482.463361 836.244233Z"  horiz-adv-x="1024" />

    
    <glyph glyph-name="wodedingdan" unicode="&#58920;" d="M439.136505 110.70152c-42.573631 0-77.210499-34.636868-77.210499-77.209476 0-42.573631 34.636868-77.210499 77.210499-77.210499s77.210499 34.636868 77.210499 77.210499C516.347005 76.064652 481.710137 110.70152 439.136505 110.70152zM439.136505-13.020292c-25.6461 0-46.511313 20.865213-46.511313 46.511313 0 25.6461 20.865213 46.51029 46.511313 46.51029s46.511313-20.865213 46.511313-46.51029C485.647819 7.844921 464.782605-13.020292 439.136505-13.020292zM797.984407 110.85297c-42.573631 0-77.210499-34.636868-77.210499-77.210499 0-42.573631 34.636868-77.209476 77.210499-77.209476s77.210499 34.636868 77.210499 77.209476C875.195929 76.216101 840.559061 110.85297 797.984407 110.85297zM797.984407-12.86782c-25.647123 0-46.511313 20.865213-46.511313 46.51029 0 25.647123 20.865213 46.511313 46.511313 46.511313s46.511313-20.865213 46.511313-46.511313C844.496743 7.99637 823.63153-12.86782 797.984407-12.86782zM705.810101 401.136286l30.699186 0 0-159.291936-30.699186 0 0 159.291936ZM786.744411 399.589047l30.699186 0 0-157.744697-30.699186 0 0 157.744697ZM546.518165 401.136286l30.699186 0 0-158.77619-30.699186 0 0 158.77619ZM625.992217 401.136286l30.699186 0 0-159.230538-30.699186 0 0 159.230538ZM466.615347 401.136286l30.699186 0 0-158.77619-30.699186 0 0 158.77619ZM386.711506 400.104793l30.699186 0 0-157.744697-30.699186 0 0 157.744697ZM958.127733 543.495574l0.165776 1.00591L839.287091 544.501484 839.287091 698.106908l0 13.963013 0 13.963013L670.837588 726.032934l-27.647687 56.69321c-4.313236 8.843412-13.307074 14.33652-23.473621 14.33652-4.183276 0-8.40953-0.982374-12.219299-2.840698l-174.900426-85.292572c-6.423293-3.13234-11.31879-8.471952-13.782911-15.034415-2.51631-6.702656-2.209318-13.865799 0.864694-20.168342L482.697627 544.501484 376.286062 544.501484l0-30.930453 547.018561 0L872.961028 148.993638 357.136933 148.993638 205.358111 592.208019l-0.092098-0.031722 0 0.302899L65.055668 592.479195l0-27.927049 117.367081 0 152.879899-446.429609 0-0.058328 0.020466 0 0.00307-0.00921 0.025583 0.00921L899.940496 118.064208l0 0.005117 0.033769-0.005117L958.127733 543.495574zM811.360042 698.106908 811.360042 544.501484l-51.996235 0-74.90806 153.6044L811.360042 698.105884zM446.828698 684.402791l171.247222 83.512019 12.098549-24.576745-171.246199-83.510996L446.828698 684.402791zM471.344045 634.414283l171.246199 83.512019L727.022215 544.501484 515.118014 544.501484 471.344045 634.414283z"  horiz-adv-x="1024" />

    
    <glyph glyph-name="youhuiquan" unicode="&#58949;" d="M601.746773 424.884907l-19.616427 15.373653c-3.177813 2.491733-7.768747 1.938773-10.263893-1.23904l-57.808213-72.185173-57.808213 72.185173c-2.48832 3.181227-7.08608 3.734187-10.263893 1.23904l-19.613013-15.373653c-3.177813-2.48832-3.7376-7.08608-1.245867-10.26048l55.77728-69.655893-48.20992 0c-4.058453 0-7.345493-3.293867-7.345493-7.35232l0-25.053867c0-4.058453 3.28704-7.35232 7.345493-7.35232l58.978987 0 0-20.739413-58.978987 0c-4.058453 0-7.345493-3.28704-7.345493-7.345493l0-25.053867c0-4.058453 3.28704-7.35232 7.345493-7.35232l58.978987 0 0-37.98016c0-4.676267 3.7888-8.46848 8.465067-8.46848l28.869973 0c4.672853 0 8.465067 3.792213 8.465067 8.46848l0 37.98016 52.927147 0c4.05504 0 7.345493 3.293867 7.345493 7.35232l0 25.053867c0 4.058453-3.290453 7.345493-7.345493 7.345493l-52.927147 0 0 20.739413 52.927147 0c4.05504 0 7.345493 3.293867 7.345493 7.35232l0 25.053867c0 4.058453-3.290453 7.35232-7.345493 7.35232l-43.195733 0 55.780693 69.655893C605.477547 417.795413 604.91776 422.393173 601.746773 424.884907zM510.90432 885.76C234.0864 885.76 9.6768 661.3504 9.6768 384.53248c0-276.81792 224.4096-501.22752 501.22752-501.22752s501.22752 224.4096 501.22752 501.22752C1012.128427 661.3504 787.718827 885.76 510.90432 885.76zM250.781013 594.69824c0 20.292267 16.448853 36.747947 36.747947 36.747947l105.847467 0 0-66.112853L250.781013 565.333333 250.781013 594.69824zM271.52384 112.923307l-105.847467 0c-20.29568 0-36.747947 16.452267-36.747947 36.747947l0 138.253653c27.204267 0 49.257813 22.05696 49.257813 49.261227 0 27.200853-22.053547 49.257813-49.257813 49.257813l0 103.256747c0 20.292267 16.448853 36.747947 36.747947 36.747947l105.847467 0L271.52384 112.923307zM771.027627 421.444267c0-29.385387-32.406187-19.012267-32.406187-50.988373 0-31.542613 32.406187-19.012267 32.406187-50.558293s-32.406187-16.41472-32.406187-47.100587c0-31.105707 32.406187-19.869013 32.406187-47.09376 0-31.976107-32.406187-19.00544-32.406187-48.827733 0-28.945067 26.791253-18.909867 26.791253-45.806933 0-8.680107-4.543147-15.445333-6.683307-18.148693L323.372373 112.919893 323.372373 526.441813l438.708907 0c2.013867-1.600853 8.942933-7.553707 8.942933-13.827413 0-22.03648-32.406187-23.76704-32.406187-47.100587S771.027627 450.822827 771.027627 421.444267zM892.880213 424.89856c0-31.5392-32.406187-16.418133-32.406187-47.097173 0-31.102293 32.406187-19.87584 32.406187-47.100587 0-31.972693-32.406187-19.00544-32.406187-48.82432 0-28.941653 26.78784-18.906453 26.78784-45.800107 0-8.68352-4.539733-15.445333-6.679893-18.158933l-79.663787 0c1.553067 27.026773 32.334507 15.510187 32.334507 46.677333 0 27.224747-32.406187 15.988053-32.406187 47.09376 0 30.68928 32.406187 15.557973 32.406187 47.100587 0 31.546027-32.406187 19.012267-32.406187 50.558293 0 31.976107 32.406187 21.6064 32.406187 50.988373 0 29.381973-32.406187 20.736-32.406187 44.07296s32.406187 25.060693 32.406187 47.100587c0 6.27712-6.925653 12.223147-8.946347 13.824L445.22496 565.333333 445.22496 631.442773l438.708907 0c2.01728-1.600853 8.946347-7.550293 8.946347-13.827413 0-22.039893-32.406187-23.76704-32.406187-47.100587s32.406187-14.690987 32.406187-44.07296-32.406187-19.008853-32.406187-50.988373C860.474027 443.91424 892.880213 456.444587 892.880213 424.89856z"  horiz-adv-x="1024" />

    
    <glyph glyph-name="geren13" unicode="&#58926;" d="M512-128C229.233778-128 0 101.233778 0 384 0 666.766222 229.233778 896 512 896 794.766222 896 1024 666.766222 1024 384 1024 101.233778 794.766222-128 512-128ZM512 839.111111C260.664889 839.111111 56.888889 635.363556 56.888889 384 56.888889 132.636444 260.664889-71.111111 512-71.111111 763.363556-71.111111 967.111111 132.636444 967.111111 384 967.111111 635.363556 763.363556 839.111111 512 839.111111ZM853.333333 184.888889 796.444444 184.888889C796.444444 263.424 732.757333 327.111111 654.222222 327.111111 575.658667 327.111111 512 263.424 512 184.888889L455.111111 184.888889C455.111111 261.745778 498.716444 328.305778 562.460444 361.500444 531.854222 387.584 512 425.955556 512 469.333333 512 547.868444 575.658667 611.555556 654.222222 611.555556 732.757333 611.555556 796.444444 547.868444 796.444444 469.333333 796.444444 425.955556 776.618667 387.584 745.984 361.500444 809.728 328.305778 853.333333 261.745778 853.333333 184.888889ZM654.222222 554.666667C607.089778 554.666667 568.888889 516.465778 568.888889 469.333333 568.888889 422.200889 607.089778 384 654.222222 384 701.354667 384 739.555556 422.200889 739.555556 469.333333 739.555556 516.465778 701.354667 554.666667 654.222222 554.666667ZM199.111111 384 455.111111 384 455.111111 327.111111 199.111111 327.111111 199.111111 384ZM199.111111 526.222222 455.111111 526.222222 455.111111 469.333333 199.111111 469.333333 199.111111 526.222222ZM398.222222 184.888889 199.111111 184.888889 199.111111 241.777778 398.222222 241.777778 398.222222 184.888889Z"  horiz-adv-x="1024" />

    
    <glyph glyph-name="yudingzhongxin" unicode="&#59031;" d="M513.471417 894.080716C231.236428 894.080716 2.430548 665.274836 2.430548 383.039847c0-282.205336 228.80588-511.040869 511.040869-511.040869 282.269756 0 511.040869 228.835533 511.040869 511.040869C1024.512286 665.274836 795.741173 894.080716 513.471417 894.080716zM474.54277 118.005816c-78.752005 91.826042-171.377664 161.761815-236.221249 183.586643l152.844352 87.469053 74.096437-135.578974c0 0 120.439431 275.485285 310.386196 367.311328-4.660681-65.574692-23.227736-122.43745 9.181275-192.373223C701.517303 410.921106 530.105896 214.158172 474.54277 118.005816z"  horiz-adv-x="1025" />

    
    <glyph glyph-name="pintuanzhuanqu" unicode="&#58956;" d="M706.62144 597.96992 337.78688 597.96992l0-412.09344 328.9088 0 0 0c27.88352-1.58208 41.1904 10.94144 39.92576 37.55008L706.62144 597.96992 706.62144 597.96992zM680.00256 473.44128l-75.10016 0 0-192.0256c1.5872-43.08992-21.55008-63.85152-69.39136-62.26944l-28.05248 0 0 31.37536 26.14272 0c19.328-1.5872 28.20096 8.71424 26.61376 30.89408L560.21504 473.44128l-26.61376 0c-19.01568-109.32736-73.984-190.43328-164.92544-243.3536l0 31.37024c33.5872 27.8784 60.27776 59.25888 80.08704 94.11072 19.80416 34.85696 33.35168 74.14272 40.64256 117.87264L364.40064 473.44128l0 30.89408 195.82464 0 0 67.0208 44.68224 0 0-67.0208 75.10016 0L680.00768 473.44128 680.00256 473.44128zM522.24 811.56608c-231.38816 0-418.96448-187.57632-418.96448-418.95936 0-231.38816 187.57632-418.95936 418.96448-418.95936 231.38304 0 418.96448 187.5712 418.96448 418.95936C941.19936 623.98464 753.62304 811.56608 522.24 811.56608L522.24 811.56608zM681.9072 154.98752l-392.6016 0L289.3056 630.29248l465.80224 0 0-402.59072 0 0C756.6848 177.6384 732.28288 153.40544 681.9072 154.98752L681.9072 154.98752z"  horiz-adv-x="1024" />

    
    <glyph glyph-name="xianshi" unicode="&#58896;" d="M472.64768 548.53632v-251.21792L614.53312 155.4432l28.95872 28.95872-129.88416 129.87392V548.53632zM889.46688 600.35072l-33.78176-23.15264c47.65696-69.56032 72.84736-151.08096 72.84736-235.75552 0-230.2976-187.36128-417.66912-417.66912-417.66912-230.2976 0-417.66912 187.37152-417.66912 417.66912 0 224.11264 177.44896 407.5008 399.22688 417.18784l-56.23808-56.23808 28.95872-28.95872 101.19168 101.19168-101.19168 101.19168-28.95872-28.95872 47.65696-47.65696C243.5072 785.152 52.25472 585.24672 52.25472 341.44256c0-252.88704 205.74208-458.62912 458.62912-458.62912s458.62912 205.74208 458.62912 458.62912c-0.01024 92.96896-27.67872 182.50752-80.04608 258.90816z"  horiz-adv-x="1024" />

    
    <glyph glyph-name="icon-search-cancel" unicode="&#58921;" d="M967.111 384c0-251.392-203.719-455.111-455.111-455.111s-455.111 203.719-455.111 455.111c0 251.335 203.719 455.111 455.111 455.111s455.111-203.776 455.111-455.111M783.417 174.308l-128.398 129.422c-1.479 1.479-3.186 2.674-4.722 3.868 21.542 32.824 34.361 73.051 34.361 116.272 0 0.103-0 0.206-0 0.31 0 118.199-95.061 214.114-212.423 214.114-117.305 0-212.366-95.915-212.366-214.13 0-118.329 95.118-214.13 212.366-214.13 42.724 0 82.432 12.857 115.712 34.645 1.252-1.593 2.332-3.243 3.812-4.722l128.398-129.422c8.070-8.171 19.273-13.232 31.658-13.232 12.357 0 23.537 5.038 31.599 13.172 8.055 8.224 13.023 19.491 13.023 31.918 0 12.427-4.969 23.694-13.028 31.923M472.178 277.732c-80.1 0-145.294 65.764-145.294 146.546 0 80.725 65.195 146.489 145.294 146.489 80.156 0 145.294-65.764 145.294-146.489 0-80.782-65.138-146.546-145.294-146.546z"  horiz-adv-x="1024" />

    
    <glyph glyph-name="lishidingdan" unicode="&#59299;" d="M256 646.9h382.5c9.6 0 17.3 7.8 17.3 17.3s-7.8 17.3-17.3 17.3H256c-9.6 0-17.3-7.8-17.3-17.3s7.8-17.3 17.3-17.3zM323.2 297.3H256c-9.6 0-17.3-7.8-17.3-17.3s7.8-17.3 17.3-17.3h63.2c0.8 11.6 2.1 23.2 4 34.6zM417.3 479.5c3.4 3.4 6.9 6.7 10.4 9.9H256c-9.6 0-17.3-7.8-17.3-17.3s7.8-17.3 17.3-17.3h138.8c7.1 8.5 14.6 16.8 22.5 24.7zM655.8-32.2c-73 0-141.6 28.4-193.2 80-51.6 51.6-80 120.2-80 193.2s28.4 141.6 80 193.2 120.2 80 193.2 80 141.6-28.4 193.2-80S929 314 929 241s-28.4-141.6-80-193.2c-51.6-51.6-120.3-80-193.2-80z m0 506.4c-62.3 0-120.9-24.3-164.9-68.3-44.1-44.1-68.3-102.6-68.3-164.9s24.3-120.9 68.3-164.9 102.6-68.3 164.9-68.3 120.9 24.3 164.9 68.3S889 178.7 889 241s-24.3 120.9-68.3 164.9c-44.1 44.1-102.6 68.3-164.9 68.3zM374.5 59H244.6c-38.2 0-69.2 31.1-69.2 69.2V711.3c0 38.2 31.1 69.2 69.2 69.2h421.2c38.2 0 69.2-31.1 69.2-69.2v-144.7c11.7-2.8 23.3-6.3 34.6-10.4V711.3c0 57.3-46.6 103.9-103.9 103.9H244.6c-57.3 0-103.9-46.6-103.9-103.9v-583.1c0-57.3 46.6-103.9 103.9-103.9h155.7c-9.4 11.1-18 22.6-25.8 34.7zM794.7 221h-163V384c0 11 9 20 20 20s20-9 20-20v-123h123c11 0 20-9 20-20s-8.9-20-20-20z"  horiz-adv-x="1024" />

    
    <glyph glyph-name="lishidingdan1" unicode="&#59305;" d="M256 646.9h382.5c9.6 0 17.3 7.8 17.3 17.3s-7.8 17.3-17.3 17.3H256c-9.6 0-17.3-7.8-17.3-17.3s7.8-17.3 17.3-17.3z m67.2-349.6H256c-9.6 0-17.3-7.8-17.3-17.3s7.8-17.3 17.3-17.3h63.2c0.8 11.6 2.1 23.2 4 34.6z m94.1 182.2c3.4 3.4 6.9 6.7 10.4 9.9H256c-9.6 0-17.3-7.8-17.3-17.3s7.8-17.3 17.3-17.3h138.8c7.1 8.5 14.6 16.8 22.5 24.7z m238.5-511.7c-73 0-141.6 28.4-193.2 80-51.6 51.6-80 120.2-80 193.2s28.4 141.6 80 193.2 120.2 80 193.2 80 141.6-28.4 193.2-80S929 314 929 241s-28.4-141.6-80-193.2c-51.6-51.6-120.3-80-193.2-80z m0 506.4c-62.3 0-120.9-24.3-164.9-68.3-44.1-44.1-68.3-102.6-68.3-164.9s24.3-120.9 68.3-164.9 102.6-68.3 164.9-68.3 120.9 24.3 164.9 68.3S889 178.7 889 241s-24.3 120.9-68.3 164.9c-44.1 44.1-102.6 68.3-164.9 68.3zM374.5 59H244.6c-38.2 0-69.2 31.1-69.2 69.2V711.3c0 38.2 31.1 69.2 69.2 69.2h421.2c38.2 0 69.2-31.1 69.2-69.2v-144.7c11.7-2.8 23.3-6.3 34.6-10.4V711.3c0 57.3-46.6 103.9-103.9 103.9H244.6c-57.3 0-103.9-46.6-103.9-103.9v-583.1c0-57.3 46.6-103.9 103.9-103.9h155.7c-9.4 11.1-18 22.6-25.8 34.7zM794.7 221h-163V384c0 11 9 20 20 20s20-9 20-20v-123h123c11 0 20-9 20-20s-8.9-20-20-20z"  horiz-adv-x="1024" />

    
    <glyph glyph-name="dianhua2" unicode="&#59084;" d="M422.886141 544.186859l-84.387605-85.867119c43.951301-97.54965 137.128962-206.198218 245.249204-242.706897l72.958997 72.724527s172.964948-30.19233 211.845969-49.066632c33.696066-16.355544 44.831843-52.572416 39.555762-97.258867-5.669253-48.029437-68.564481-153.918633-181.958757-155.08791-113.392228-1.166205-280.33673 84.242213-399.957253 210.287615-119.619499 126.047451-226.280705 285.789944-209.20844 421.452702 17.072264 135.663782 135.245013 159.919625 164.817892 162.097429 29.886189 2.20033 53.620874-6.571296 71.641256-28.915546 23.201241-28.766058 69.442974-207.659302 69.442975-207.659302z m-95.814165 179.621226c-14.065113 18.400243-38.238021 21.46678-62.411954 15.770906-21.454493-5.054922-99.693666-37.511063-110.756747-124.420497-12.306078-96.674228 59.773401-260.231718 189.145408-385.379173 129.374054-125.146432 253.988065-198.204745 361.126401-206.933368 107.13936-8.731694 159.398467 85.576335 167.016175 113.906219 7.617707 28.330907 1.318764 56.953621-14.065113 68.343321-19.616619 14.525861-188.112307 44.686451-188.112308 44.686451l-76.476042-75.35284c-125.700354 40.890908-244.076855 155.380741-294.474539 295.279313l83.508087 84.115251c0.001024 0.001024-40.435279 151.584175-54.499368 169.984417z"  horiz-adv-x="1024" />

    
    <glyph glyph-name="lishidingdan2" unicode="&#58932;" d="M288.33238-128a80.696071 80.696071 0 1 0 80.634412 80.618997 80.773145 80.773145 0 0 0-80.634412-80.618997z m490.188168 0a80.696071 80.696071 0 1 0 80.618997 80.618997 80.742315 80.742315 0 0 0-80.634412-80.618997zM263.129309 96.284209A74.252717 74.252717 0 0 0 184.976667 162.875809L116.242421 767.132922l-0.385368 1.541472c-4.624417 16.956194-20.224116 36.841186-37.873973 36.841186H0.215806V895.845853h141.815445c36.872016 0 55.585488-14.489839 60.918982-46.552461 2.759235-16.6479 3.175433-22.813789 3.175433-22.813789a57.142375 57.142375 0 0 1 51.855126-51.176878h742.989613c39.739154 0 57.466085-25.588439 47.631492-66.437453-38.151438-158.15505-131.225531-552.001204-131.225531-552.001205a73.990667 73.990667 0 0 0-79.401234-60.579858h-574.969141z m15.584284 92.642481h552.725696l110.986001 493.733554H229.093602zM587.300918 588.630438a47.030318 47.030318 0 0 1-46.968658-47.014903v-129.483667l-74.992624-54.413969a46.907 46.907 0 1 1 66.391208-66.283306l88.742557 67.978925a47.307783 47.307783 0 0 1 13.749932 33.2958v148.906217a47.014903 47.014903 0 0 1-46.922415 47.014903z"  horiz-adv-x="1051" />

    
    <glyph glyph-name="wodedingdan1" unicode="&#58892;" d="M646.616615 722.392615l293.415385-293.415384-383.369846-383.369846-293.336616 293.415384 383.291077 383.369846m0 84.992a63.330462 63.330462 0 0 1-44.97723-18.668307L196.844308 384a63.645538 63.645538 0 0 1 0-89.954462l314.840615-314.840615a63.330462 63.330462 0 0 1 89.954462 0L1006.434462 384a63.645538 63.645538 0 0 1 0 89.954462L691.593846 788.795077a63.251692 63.251692 0 0 1-44.977231 18.589538zM331.224615 8.349538c-24.260923 0-48.285538 9.058462-66.56 27.254154L28.435692 271.832615a93.262769 93.262769 0 0 0-27.411692 68.371693c0.551385 25.442462 10.791385 49.388308 28.987077 67.584l368.009846 367.931077c37.888 37.888 98.855385 38.596923 135.955692 1.575384l49.703385-49.624615a39.384615 39.384615 0 0 0-55.689846-55.689846l-49.703385 49.624615c-6.459077 6.222769-17.486769 5.592615-24.576-1.575385L85.700923 352.098462a19.298462 19.298462 0 0 1-5.828923-13.39077 14.808615 14.808615 0 0 1 4.253538-11.18523l236.150154-236.150154c6.459077-6.459077 17.486769-5.592615 24.576 1.575384l45.292308 45.292308a39.384615 39.384615 0 0 0 55.689846-55.689846l-45.292308-45.292308a97.910154 97.910154 0 0 0-69.316923-28.908308zM646.616615 640.708923a31.507692 31.507692 0 0 1-22.44923-9.294769L354.304 361.550769a31.744 31.744 0 1 1 44.977231-44.977231L669.144615 586.436923a31.744 31.744 0 0 1-22.528 54.272zM556.662154 370.845538a31.507692 31.507692 0 0 1-22.449231-9.294769L444.258462 271.596308a31.744 31.744 0 1 1 44.898461-44.977231l89.954462 89.954461a31.744 31.744 0 0 1-22.449231 54.272zM736.571077 370.845538a31.507692 31.507692 0 0 1-22.449231-9.294769L534.212923 181.641846a31.744 31.744 0 1 1 44.977231-44.977231l179.908923 179.908923a31.744 31.744 0 0 1-22.528 54.272z"  horiz-adv-x="1025" />

    
    <glyph glyph-name="pintuan" unicode="&#58893;" d="M701.407 647.393c-50.591 50.596-117.858 78.457-189.406 78.457-71.55 0-138.817-27.86-189.413-78.457-50.591-50.59-78.452-117.858-78.452-189.407 0-55.303 16.72-108.394 48.353-153.535 26.445-37.744 61.624-67.677 102.627-87.542l-42.234-143.695c-3.882-13.204 3.673-27.044 16.871-30.926 13.204-3.88 27.045 3.677 30.926 16.877l54.929 186.888-21.485 8.22c-40.794 15.603-75.659 42.842-100.835 78.766-25.732 36.722-39.335 79.925-39.335 124.947 0 58.24 22.681 112.999 63.866 154.177 41.183 41.184 95.941 63.866 154.182 63.866 58.239 0 112.997-22.682 154.18-63.866 41.185-41.183 63.862-95.937 63.862-154.177 0-45.022-13.599-88.225-39.331-124.947-25.176-35.924-60.046-63.163-100.835-78.766l-21.485-8.22 54.929-186.888c3.188-10.857 13.118-17.893 23.885-17.893 2.328 0 4.693 0.328 7.036 1.016 13.198 3.882 20.753 17.722 16.876 30.926L628.884 216.91c41.003 19.865 76.182 49.798 102.627 87.542 31.633 45.14 48.353 98.232 48.353 153.535 0 71.55-27.86 138.816-78.457 189.407z m0 0M178.607 293.856c-15.617 22.287-23.87 48.515-23.87 75.844 0 43.9 21.717 84.87 58.089 109.58 11.378 7.732 14.334 23.225 6.603 34.604-7.73 11.38-23.223 14.335-34.603 6.604-50.039-33.994-79.91-90.368-79.91-150.788 0-37.616 11.375-73.726 32.893-104.437 16.34-23.315 37.578-42.248 62.236-55.652l-46.657-135.304c-4.485-13.004 2.423-27.183 15.427-31.667a24.77 24.77 0 0 1 8.12-1.368c10.334 0 19.992 6.48 23.551 16.796l61.847 179.348-22.501 8.61c-24.765 9.473-45.936 26.013-61.225 47.83z m0 0M886.191 265.267c21.518 30.707 32.893 66.817 32.893 104.433 0 60.059-29.59 116.233-79.155 150.275-11.34 7.788-26.849 4.908-34.637-6.433-7.787-11.34-4.908-26.849 6.433-34.636 36.029-24.744 57.538-65.567 57.538-109.206 0-27.33-8.253-53.557-23.87-75.844-15.29-21.817-36.462-38.357-61.225-47.83l-22.501-8.61 61.847-179.348c3.559-10.316 13.217-16.796 23.551-16.796 2.69 0 5.43 0.441 8.12 1.368 13.004 4.484 19.912 18.663 15.427 31.667l-46.657 135.31c24.66 13.398 45.896 32.331 62.236 55.65z m0 0"  horiz-adv-x="1024" />

    
    <glyph glyph-name="lishijilu" unicode="&#59101;" d="M750.8 194.10000000000002v83.6c0 16.9-13.8 30.6-30.7 30.6s-30.6-13.7-30.6-30.6v-144.9H806c16.9 0 30.6 13.8 30.6 30.7s-13.7 30.6-30.6 30.6h-55.2zM208 198.60000000000002c-16.9 0-30.6-13.7-30.6-30.6 0-16.9 13.7-30.7 30.6-30.7h157.9c16.9 0 30.6 13.8 30.6 30.7s-13.7 30.6-30.6 30.6H208zM466.1 314.9c0 16.9-13.7 30.7-30.6 30.7H208c-16.9 0-30.7-13.8-30.7-30.7s13.7-30.7 30.7-30.7h227.5c16.9 0 30.6 13.8 30.6 30.7zM207.9 578h398.3c16.9 0 30.6 13.7 30.6 30.7 0 16.9-13.7 30.6-30.6 30.6H207.9c-16.9 0-30.6-13.7-30.6-30.6 0-8.2 3.2-15.9 9-21.7 5.7-5.8 13.4-9 21.6-9zM636.9 461.8c0 16.9-13.7 30.6-30.6 30.6H208c-16.9 0-30.7-13.7-30.7-30.6 0-16.9 13.7-30.6 30.7-30.6h398.3c16.9-0.1 30.6 13.7 30.6 30.6zM499.8 39.39999999999998H170c-24.9 0-45.2 20.3-45.2 45.2V692c0 24.9 20.3 45.2 45.2 45.2h474.4c24.9 0 45.2-20.3 45.2-45.2v-230.2c0-16.9 13.7-30.6 30.6-30.6 16.9 0 30.6 13.7 30.6 30.6V692c0 58.8-47.8 106.6-106.5 106.6H170c-56.7 0-103.4-44.3-106.4-100.9V78.89999999999998c3-56.5 49.8-100.8 106.4-100.8h329.8c16.9 0 30.7 13.8 30.7 30.7s-13.8 30.6-30.7 30.6zM720.2 393.7c-114.6 0-207.8-93.2-207.8-207.8 0-114.6 93.2-207.8 207.8-207.8 114.6 0 207.8 93.2 207.8 207.8 0 114.6-93.2 207.8-207.8 207.8z m146.5-207.8c0-80.8-65.7-146.5-146.5-146.5s-146.4 65.7-146.4 146.5 65.7 146.5 146.4 146.5 146.5-65.7 146.5-146.5z"  horiz-adv-x="1024" />

    
    <glyph glyph-name="guanzhu2" unicode="&#58880;" d="M120 384a392 392 0 1 1 784 0 392 392 0 0 1-784 0zM512 896C228.8 896 0 667.2 0 384s228.8-512 512-512 512 228.8 512 512-228.8 512-512 512z m0-992C248-96 32 120 32 384S248 864 512 864s480-216 480-480-216-480-480-480zM512 92.86400000000003a9.408 9.408 0 0 0-6.848 3.008L277.184 346.24a156.544 156.544 0 0 0-45.312 111.04c0 85.824 67.968 155.648 151.424 155.648 16.128 0 32-2.624 47.168-7.744a9.344 9.344 0 0 0-5.952-17.664 128.128 128.128 0 0 1-41.152 6.784c-73.28 0-132.8-61.44-132.8-137.024 0-37.248 14.272-72.128 40.128-98.112L512 115.96799999999996l221.12 242.88c26.112 26.304 40.384 61.184 40.384 98.368 0 75.584-59.648 137.024-132.736 137.024-25.6 0-50.496-7.552-72-21.824-0.64-0.384-55.872-37.312-140.736-146.304a9.344 9.344 0 1 0-14.784 11.456c87.168 111.808 142.848 148.864 145.152 150.4 24.384 16.32 52.864 24.96 82.24 24.96 83.52 0 151.488-69.824 151.488-155.648 0-42.24-16.256-81.728-45.632-111.232l-227.648-250.112a9.344 9.344 0 0 0-6.848-3.072zM512 84.86400000000003a17.344 17.344 0 0 0-12.736 5.568L271.232 340.86400000000003a163.968 163.968 0 0 0-47.36 116.352c0 90.24 71.552 163.648 159.424 163.648 17.024 0 33.728-2.752 49.728-8.192a17.536 17.536 0 0 0 11.008-21.76 17.92 17.92 0 0 0-21.888-11.008 120.512 120.512 0 0 1-38.784 6.4c-68.8 0-124.8-57.856-124.8-129.024 0-35.136 13.44-67.968 37.824-92.416L512 127.87199999999996l215.168 236.352c24.832 24.96 38.336 57.856 38.336 92.992 0 71.168-55.936 129.024-124.736 129.024-24 0-47.36-7.104-67.584-20.48-0.576-0.384-55.232-37.248-138.88-144.576a17.728 17.728 0 0 0-24.384-3.008 17.152 17.152 0 0 0-3.008 24.256C489.6 548.544 543.808 587.7760000000001 553.792 594.56c25.792 17.28 55.808 26.368 86.784 26.368 87.936 0 159.488-73.408 159.488-163.648a164.48 164.48 0 0 0-47.936-116.864L524.8 90.49599999999998a17.408 17.408 0 0 0-12.8-5.632zM383.296 604.928c-79.104 0-143.424-66.24-143.424-147.648 0-40.064 15.232-77.44 42.944-105.344L512 100.86400000000003a1.664 1.664 0 0 1 1.024 0.448l227.52 250.048a149.12 149.12 0 0 1 43.584 105.856c0 81.408-64.384 147.648-143.488 147.648-27.84 0-54.72-8.128-77.824-23.616-6.016-3.968-60.352-42.24-143.232-148.608l1.024-2.112C508.16 542.0160000000001 563.84 578.752 564.352 579.136a137.728 137.728 0 0 0 76.352 23.104c77.632 0 140.736-65.088 140.736-145.024a146.56 146.56 0 0 0-42.688-104L512 104.12800000000004 284.8 353.79200000000003c-27.136 27.2-42.24 64-42.24 103.488 0 80 63.168 145.024 140.8 145.024 15.04 0 29.76-2.432 43.776-7.168l1.6 1.792a131.392 131.392 0 0 1-45.44 8z"  horiz-adv-x="1024" />

    
    <glyph glyph-name="quanbu" unicode="&#59032;" d="M315.076923 580.923077v-157.538462h157.538462V580.923077H315.076923z m0 39.384615h157.538462a39.384615 39.384615 0 0 0 39.384615-39.384615v-157.538462a39.384615 39.384615 0 0 0-39.384615-39.384615H315.076923a39.384615 39.384615 0 0 0-39.384615 39.384615V580.923077a39.384615 39.384615 0 0 0 39.384615 39.384615zM315.076923 305.230769v-157.538461h157.538462v157.538461H315.076923z m0 39.384616h157.538462a39.384615 39.384615 0 0 0 39.384615-39.384616v-157.538461a39.384615 39.384615 0 0 0-39.384615-39.384616H315.076923a39.384615 39.384615 0 0 0-39.384615 39.384616v157.538461a39.384615 39.384615 0 0 0 39.384615 39.384616zM669.538462 580.923077a78.769231 78.769231 0 1 1 0-157.538462 78.769231 78.769231 0 0 1 0 157.538462z m0 39.384615a118.153846 118.153846 0 1 0 0-236.307692 118.153846 118.153846 0 0 0 0 236.307692zM590.769231 305.230769v-157.538461h157.538461v157.538461h-157.538461z m0 39.384616h157.538461a39.384615 39.384615 0 0 0 39.384616-39.384616v-157.538461a39.384615 39.384615 0 0 0-39.384616-39.384616h-157.538461a39.384615 39.384615 0 0 0-39.384616 39.384616v157.538461a39.384615 39.384615 0 0 0 39.384616 39.384616z"  horiz-adv-x="1024" />

    
    <glyph glyph-name="shouye-" unicode="&#58897;" d="M511.990608-128C225.275867-128-7.154306 108.905853 0.169533 397.248113 7.222119 675.384468 238.262119 898.354682 516.500194 895.981216a508.294782 508.294782 0 0 0 277.186968-84.359777 16.512545 16.512545 0 0 0 4.340053-23.327784A16.478638 16.478638 0 0 0 775.445378 784.089229a479.033332 479.033332 0 0 1-742.555915-400.098621c0-264.098996 214.866522-478.965518 478.965518-478.965518s479.101145 214.866522 479.101145 478.965518A473.438732 473.438732 0 0 1 945.995891 586.684638a16.580358 16.580358 0 0 0 7.425559 21.801984 16.546451 16.546451 0 0 0 22.446211-7.662906A506.192569 506.192569 0 0 0 1023.981216 383.990608c0-282.306874-229.683734-511.990608-511.990608-511.990608zM927.00816 672.638028m-18.648664 0a18.648665 18.648665 0 1 1 37.297329 0 18.648665 18.648665 0 1 1-37.297329 0ZM511.651541 715.021356a325.503963 325.503963 0 1 1 325.503963-325.503962 325.503963 325.503963 0 0 1-325.503963 325.503962z m256.402184-353.985559h-56.929287v-199.43899a28.54941 28.54941 0 0 0-28.54941-28.515504h-85.54651a28.515503 28.515503 0 0 0-28.481597 28.515504V275.489287h-113.960293v-113.926387a28.413783 28.413783 0 0 0-28.413784-28.413783h-85.478696a28.44769 28.44769 0 0 0-28.481597 28.413783v199.472897H255.283264a28.54941 28.54941 0 0 0-28.44769 28.54941 29.66833 29.66833 0 0 0 10.171999 21.903704c98.498855 82.325377 274.643968 234.464573 274.643968 234.464573s176.111206-152.139196 273.762395-234.566293a27.871277 27.871277 0 0 0 10.917946-21.93761 28.413783 28.413783 0 0 0-28.278157-28.413784z"  horiz-adv-x="1024" />

    
    <glyph glyph-name="geren" unicode="&#58895;" d="M512.1-62.1c-60.3 0-118.8 11.8-173.9 35.1-53.2 22.5-100.9 54.7-142 95.7-41 41-73.2 88.8-95.7 142-23.3 55.1-35.1 113.6-35.1 173.9 0 60.3 11.8 118.8 35.1 173.9 22.5 53.2 54.7 100.9 95.7 142s88.8 73.2 142 95.7c55.1 23.3 113.6 35.1 173.9 35.1 60.3 0 118.8-11.8 173.9-35.1 53.2-22.5 100.9-54.7 142-95.7s73.2-88.8 95.7-142c23.3-55.1 35.1-113.6 35.1-173.9 0-60.3-11.8-118.8-35.1-173.9-22.5-53.2-54.7-100.9-95.7-142-41-41-88.8-73.2-142-95.7-55.1-23.3-113.6-35.1-173.9-35.1z m0 833.2c-52.2 0-102.8-10.2-150.5-30.4-46-19.5-87.4-47.4-122.9-82.9-35.5-35.5-63.4-76.9-82.9-122.9-20.2-47.6-30.4-98.3-30.4-150.5s10.2-102.8 30.4-150.5c19.5-46 47.4-87.4 82.9-122.9 35.5-35.5 76.9-63.4 122.9-82.9 47.6-20.2 98.3-30.4 150.5-30.4s102.8 10.2 150.5 30.4c46 19.5 87.4 47.4 122.9 82.9 35.5 35.6 63.4 77 82.8 123 20.2 47.6 30.4 98.3 30.4 150.5S888.5 487.3 868.3 535c-19.5 46-47.4 87.4-82.9 122.9-35.5 35.5-76.9 63.4-122.9 82.9-47.6 20.1-98.2 30.3-150.4 30.3zM785 263.2c-6.8 4.7-16.2 2.9-20.8-3.9-4.7-6.8-2.9-16.2 3.9-20.8 8.7-5.9 13.8-15.7 13.8-26.1-0.1-17.3-14.2-31.4-31.5-31.4h-0.1c-16.7 0-30.4 13.2-31.3 29.7-1 88.5-57.8 163.9-136.8 192.4 46.5 25 78.2 74.2 78.2 130.6 0 81.8-66.5 148.3-148.3 148.3-81.8 0-148.3-66.5-148.3-148.3 0-56.4 31.7-105.6 78.2-130.6-79.4-28.7-136.4-104.6-136.8-193.7-1.6-15.9-14.9-28.3-31.2-28.4h-0.1c-17.3 0-31.4 14.1-31.5 31.4 0 10.5 5.1 20.2 13.8 26.1 6.8 4.7 8.6 14 3.9 20.8-4.7 6.8-14 8.6-20.8 3.9-16.9-11.5-26.9-30.6-26.9-51 0.1-33.8 27.7-61.3 61.5-61.3h0.2c31.9 0.1 58.1 24.6 61 55.7 0 0.4 0.1 0.7 0.1 1.1 0.1 1.6 0.2 3.2 0.2 4.9 0 0.4 0 0.9-0.1 1.3 2.9 95 81.1 171.4 176.8 171.4 96 0 174.4-76.9 176.8-172.3v-0.4c0-1 0-1.9 0.1-2.8v-1.4c0-1.1 0.1-2.2 0.4-3.3 3.6-30.4 29.5-54.1 60.8-54.2h0.2c33.8 0 61.4 27.5 61.5 61.3 0 20.5-10 39.5-26.9 51zM393.8 533.7c0 65.2 53.1 118.3 118.3 118.3s118.3-53.1 118.3-118.3-53.1-118.3-118.3-118.3-118.3 53.1-118.3 118.3z"  horiz-adv-x="1024" />

    
    <glyph glyph-name="lishidingdan3" unicode="&#59155;" d="M1069.034752 583.239014a510.649117 510.649117 0 0 1-109.677045 162.784552A509.541268 509.541268 0 0 1 796.573155 855.70061 509.056584 509.056584 0 0 1 597.160347 895.998615a510.302914 510.302914 0 0 1-362.197359-149.975049 510.302914 510.302914 0 0 1-135.365292-239.987775l-25.549766 57.400423a38.566991 38.566991 0 0 1-71.387015-1.800254 38.42851 38.42851 0 0 1 0.761646-29.565719l79.141958-178.017475 1.384811-2.838863c0-0.138481 0.138481-0.207722 0.207722-0.346203a14.263555 14.263555 0 0 1 1.523292-2.49266l1.17709-1.731014 0.623165-0.761646 0.900127-1.107849a9.832159 9.832159 0 0 1 1.384811-1.523292l0.138481-0.138481 0.623165-0.761646 0.761646-0.761646 0.207722-0.069241a11.493933 11.493933 0 0 1 0.969368-0.900127l0.900127-0.623165 1.384811-1.17709 0.415444-0.346202c0.623165-0.553924 1.384811-0.969368 2.146457-1.523293l0.138481-0.138481 2.146457-1.31557 0.207722-0.138482a29.634959 29.634959 0 0 1 4.846839-2.146457h0.138481c0.761646-0.207722 1.384811-0.553924 2.284939-0.761646l0.415443-0.207722 2.077217-0.553924 0.346202-0.138481h0.138482c0.761646 0 1.454052-0.207722 2.215697-0.346203l0.900128-0.138481h0.138481a9.278235 9.278235 0 0 1 1.384811-0.069241h0.138481l0.969368-0.138481c0.415443 0 0.969368 0 1.384811-0.138481h0.900127c0.969368 0 2.077217 0 3.254307 0.138481h0.207721l3.115825 0.415444 0.415444 0.138481a50.545607 50.545607 0 0 1 2.908103 0.623165l0.415443 0.138481h0.138482l2.284938 0.761646h0.138481l0.623165 0.207722a17.171658 17.171658 0 0 1 2.077217 0.900127h0.06924l0.346203 0.138481c0.346203 0.069241 0.623165 0.276962 0.830887 0.415443a41.752057 41.752057 0 0 1 2.49266 1.24633l0.346203 0.207722 0.138481 0.138481a39.813321 39.813321 0 0 1 5.816207 4.362155l146.859224 128.441236a38.636231 38.636231 0 0 1-50.961051 58.092828l-69.586761-60.931691c38.982434 202.528633 219.007886 352.711403 427.145003 352.711403 239.780053 0 434.899946-195.189134 434.899947-434.899946s-195.189134-434.899946-434.899947-434.899946a434.969187 434.969187 0 0 0-282.986161 104.622484 38.566991 38.566991 0 0 1-50.268645-58.439031 511.964687 511.964687 0 0 1 333.254806-123.109713 510.649117 510.649117 0 0 1 362.19736 149.975049 509.541268 509.541268 0 0 1 109.677045 162.784552c26.726855 63.147389 40.298005 130.172249 40.298004 199.412808a508.918103 508.918103 0 0 1-40.298004 198.928124m-315.806186-8.378108a38.42851 38.42851 0 0 1-54.56156 0L597.021866 473.285007 495.445967 574.860906a38.359269 38.359269 0 0 1-54.561559 0 38.636231 38.636231 0 0 1 0-54.56156l62.939667-62.939667h-61.416375a7.47798 7.47798 0 0 1-7.47798-7.47798v-62.247262c0-4.085193 3.323547-7.47798 7.47798-7.47798h115.977935v-51.653457H442.4077a7.47798 7.47798 0 0 1-7.47798-7.47798v-62.247262c0-4.085193 3.323547-7.47798 7.47798-7.47798h115.977935v-115.977935a38.566991 38.566991 0 0 1 77.133982 0V251.299778h116.116416a7.47798 7.47798 0 0 1 7.47798 7.47798v62.247262a7.47798 7.47798 0 0 1-7.47798 7.47798H635.519617V380.156457h116.116416a7.47798 7.47798 0 0 1 7.47798 7.47798v62.247262a7.47798 7.47798 0 0 1-7.47798 7.47798h-61.485616l63.008908 63.008908a38.49775 38.49775 0 0 1 0.069241 54.492319z"  horiz-adv-x="1109" />

    
    <glyph glyph-name="searchlist" unicode="&#58881;" d="M962 105.5500002L805.0000001 262.56249990000003c87.26249971 101.1999999 83.11250039 254.00000039-12.8874999 349.99999981-50.2999998 50.2999998-116.2125 75.4374999-182.1375 75.4374999s-131.8375002-25.1499999-182.1375-75.4374999c-100.58749981-100.58749981-100.58749981-263.67500039 0-364.26249932a256.74999961 256.74999961 0 0 1 182.1375-75.43750078c59.9124999 0 119.68750019 20.99999971 167.87499961 62.55l156.9999999-157.01249971L962 105.5500002z m-352.0249998 105.7124997a217.6875 217.6875 0 0 0-154.97499991 64.19999971c-85.4499999 85.4499999-85.4499999 224.4999999 0 309.96250049a217.7375001 217.7375001 0 0 0 154.97499991 64.19999971c58.53750029 0 113.58749971-22.79999971 154.9749999-64.19999971 85.4499999-85.4499999 85.4499999-224.4999999 0-309.96250049a217.7375001 217.7375001 0 0 0-154.97499991-64.19999971zM62 684.33749971h277.56249961v-38.39999942H62zM62 111.1750002h418.37500019v-38.4000003H62zM62 395.40000029h213.51250019v-38.40000029H62z"  horiz-adv-x="1024" />

    
    <glyph glyph-name="pintuan1" unicode="&#58959;" d="M418.909091 779.636364c4.654545 0 9.309091 0 13.963636-2.327273 27.927273-4.654545 51.2-27.927273 58.181818-53.527273 4.654545-20.945455 2.327273-41.890909-9.30909-60.509091-9.309091-13.963636-9.309091-32.581818 0-46.545454 9.309091-13.963636 23.272727-23.272727 39.563636-23.272728H674.909091c25.6 0 46.545455-20.945455 46.545454-46.545454v-155.927273c0-16.290909 9.309091-32.581818 23.272728-39.563636 6.981818-4.654545 13.963636-6.981818 23.272727-6.981818s16.290909 2.327273 23.272727 6.981818c11.636364 6.981818 25.6 11.636364 39.563637 11.636363 6.981818 0 13.963636 0 20.945454-2.327272 27.927273-6.981818 48.872727-32.581818 53.527273-58.181818 4.654545-23.272727-2.327273-46.545455-16.290909-62.836364-13.963636-18.618182-34.909091-27.927273-58.181818-27.927273-13.963636 0-25.6 4.654545-39.563637 11.636364-6.981818 4.654545-16.290909 6.981818-23.272727 6.981818-6.981818 0-16.290909-2.327273-23.272727-6.981818-13.963636-9.309091-23.272727-23.272727-23.272728-39.563637V34.90909099999999c0-25.6-20.945455-46.545455-46.545454-46.545455h-88.436364v6.981819c0 93.090909-76.8 169.890909-169.890909 169.890909-9.309091 0-18.618182 0-30.254545-2.327273-60.509091-9.309091-111.709091-55.854545-132.654546-114.036364-6.981818-20.945455-9.309091-39.563636-9.309091-60.509091H162.909091c-25.6 0-46.545455 20.945455-46.545455 46.545455v79.127273h6.981819c51.2 0 97.745455 20.945455 130.327272 60.509091 32.581818 37.236364 46.545455 88.436364 37.236364 139.636363-9.309091 60.509091-55.854545 111.709091-114.036364 132.654546-16.290909 4.654545-34.909091 6.981818-53.527272 6.981818H116.363636v93.090909c0 25.6 20.945455 46.545455 46.545455 46.545454h148.945454c16.290909 0 32.581818 9.309091 39.563637 23.272728 9.309091 13.963636 6.981818 32.581818 0 46.545454-6.981818 11.636364-11.636364 25.6-11.636364 39.563637 0 20.945455 6.981818 39.563636 23.272727 53.527272 13.963636 16.290909 34.909091 23.272727 55.854546 23.272728m0 46.545454c-67.490909 0-123.345455-55.854545-123.345455-123.345454 0-23.272727 6.981818-44.218182 18.618182-62.836364H162.909091c-51.2 0-93.090909-41.890909-93.090909-93.090909v-93.090909c0-25.6 20.945455-46.545455 46.545454-46.545455H123.345455c11.636364 0 25.6-2.327273 39.563636-6.981818 41.890909-13.963636 74.472727-51.2 81.454545-95.418182 13.963636-76.8-46.545455-144.290909-121.018181-144.290909h-4.654546H116.363636c-25.6 0-46.545455-20.945455-46.545454-46.545454V34.90909099999999c0-51.2 41.890909-93.090909 93.090909-93.090909h86.109091c25.6 0 48.872727 20.945455 46.545454 48.872727 0 13.963636 0 27.927273 6.981819 44.218182 13.963636 41.890909 51.2 74.472727 95.418181 83.781818 6.981818 2.327273 13.963636 2.327273 20.945455 2.327273 67.490909 0 123.345455-55.854545 123.345454-123.345455v-4.654545c0-25.6 18.618182-48.872727 46.545455-48.872727H674.909091c51.2 0 93.090909 41.890909 93.090909 93.090909v144.290909c18.618182-11.636364 39.563636-18.618182 62.836364-18.618182 74.472727 0 134.981818 67.490909 121.018181 146.618182-9.309091 44.218182-41.890909 83.781818-88.436363 95.418182-11.636364 2.327273-23.272727 4.654545-34.909091 4.654545-23.272727 0-44.218182-6.981818-62.836364-18.618182V546.909091c0 51.2-41.890909 93.090909-93.090909 93.090909h-151.272727c16.290909 27.927273 23.272727 60.509091 13.963636 95.418182-11.636364 44.218182-48.872727 79.127273-93.090909 88.436363-9.309091 2.327273-16.290909 2.327273-23.272727 2.327273z"  horiz-adv-x="1024" />

    
    <glyph glyph-name="daizhifu" unicode="&#58882;" d="M144.409796 42.722913a26.591733 26.591733 0 0 0-20.686267 9.846252 509.446434 509.446434 0 0 0-42.263493 59.717174 27.128594 27.128594 0 0 0 8.978136 37.180452 26.728804 26.728804 0 0 0 36.929156-9.03525 447.079225 447.079225 0 0 1 37.831537-53.434763 27.299932 27.299932 0 0 0-3.51815-38.094257 27.802525 27.802525 0 0 0-17.270919-6.179608z m0 0M511.839469-127.998755a508.030036 508.030036 0 0 0-294.896381 93.550814 26.993807 26.993807 0 0 0 31.092224 44.136794 454.823724 454.823724 0 0 1 263.86127-83.590336c252.381591 0 457.782169 205.503381 457.782169 458.044888s-205.400578 458.044888-457.782169 458.044888-457.656521-205.606184-457.656521-458.113424A456.445729 456.445729 0 0 1 72.641815 255.308285a27.038355 27.038355 0 0 0-51.892717-15.214858 513.204458 513.204458 0 0 0-20.469237 143.924329C0.279861 666.360737 229.804897 896 512.010808 896s511.730947-229.593572 511.730947-511.982244-229.593572-511.993666-511.845173-511.993666z m0 0M629.948799 603.319597a21.885636 21.885636 0 0 1-19.247023-11.525369l-59.819977-110.856001q-26.431817-49.722429-32.314438-66.113811h-1.142257q-16.722636 38.277018-92.100148 177.04977a21.885636 21.885636 0 0 1-19.212756 11.479679h-11.045621c-16.905397 0-27.414158-18.458866-18.927191-33.125441l96.315074-166.358248h-72.818856a21.977017 21.977017 0 0 1-21.908482-22.045552 21.977017 21.977017 0 0 1 21.908482-22.136933h89.096013v-60.756627h-89.096013a21.965594 21.965594 0 0 1-21.897059-22.045552v-0.525438a21.965594 21.965594 0 0 1 21.897059-22.07982h89.096013v-66.433642a21.977017 21.977017 0 0 1 21.908481-22.056975h11.274072a21.977017 21.977017 0 0 1 21.897059 22.056975v66.433642h85.200918a21.977017 21.977017 0 0 1 21.919904 22.091242v0.514016a21.965594 21.965594 0 0 1-21.897059 22.045552h-85.178073V359.687691h85.200918a21.977017 21.977017 0 0 1 21.874214 22.056975 21.965594 21.965594 0 0 1-21.897059 22.045552h-69.98606l97.194612 166.27829c8.589769 14.712265-1.930414 33.251089-18.870079 33.251089z"  horiz-adv-x="1024" />

    
    <glyph glyph-name="dianhua" unicode="&#58898;" d="M779.27738-127.588659l-5.313159 0.102836c-123.436682 6.272956-290.132762 121.962709-445.928296 309.397248l-57.587788 69.24246C114.618324 438.622703 33.001345 621.70388 52.094439 740.924313 65.565868 825.00934 191.162092 896 262.941157 896c35.341077 0 48.161216-17.516286 52.651692-27.971211 40.619958-71.8819 90.906437-196.89539 91.146387-241.731598v-3.187895l-1.165468-2.982225c-8.980953-23.58357-28.999565-34.861179-46.721521-44.801928-23.309343-13.094366-36.540823-21.732534-38.151909-46.51585-0.479898-7.50698 6.033006-41.751147 108.834064-167.895826l43.944967-52.823084c103.075285-121.105748 135.536973-134.165835 143.112509-135.228468 24.851873-3.427845 36.575101 7.404144 54.434172 26.90858 13.608543 14.876845 29.068122 31.707562 54.537006 35.443913l3.222174 0.445619 3.153617-0.685568c44.904763-9.426572 159.806113-83.159509 225.037994-137.867908 9.426572-6.238677 25.845948-24.714759 12.854418-65.506109-20.395675-64.134971-109.416798-159.189101-190.553879-159.189101z"  horiz-adv-x="1024" />

    
    <glyph glyph-name="dianhua1" unicode="&#59703;" d="M510.976 893.44C229.888 893.44 2.56 666.112 2.56 385.024S229.888-122.88 510.976-122.88 1018.88 104.448 1018.88 385.024 791.552 893.44 510.976 893.44z m0-943.616c-240.64 0-435.712 195.072-435.712 435.712 0 240.64 195.072 435.712 435.712 435.712 240.64 0 435.712-195.072 435.712-435.712-0.512-240.64-195.584-435.712-435.712-435.712z m251.392 268.288c-12.8 40.96-40.96 68.096-78.336 86.016-18.432 8.704-35.328 6.656-48.64-10.24-3.072-4.096-6.656-7.68-10.24-11.264-19.456-19.968-29.184-22.528-55.296-11.264-10.24 4.096-19.968 9.216-29.184 15.36-44.544 28.16-81.408 64.512-113.664 105.984-14.336 18.432-26.112 38.4-34.304 60.416-6.656 16.896-3.584 31.232 9.728 43.52 6.656 6.144 12.8 13.824 19.968 19.456 11.264 9.216 12.8 20.48 7.68 32.768C419.328 578.56 401.408 603.648 376.832 624.64c-8.192 7.168-17.92 11.264-28.672 12.8-5.12 2.048-10.752 0.512-16.384 1.024-33.792-1.024-69.12-32.768-75.264-67.072v-40.448c2.56-14.848 3.072-30.208 8.192-44.544 11.776-32.768 26.624-64 45.568-93.184 42.496-64.512 95.232-119.808 155.136-168.448 55.808-45.568 115.712-83.456 189.952-92.672h10.24c6.144 2.048 11.776 2.048 17.92 0h5.12c21.504 0 37.376 11.264 50.688 26.624 6.144 7.168 11.776 14.336 17.408 21.504 4.608 5.632 7.168 12.288 6.656 19.968-0.512 5.632 1.024 11.776-1.024 17.92z"  horiz-adv-x="1024" />

    
    <glyph glyph-name="weizhi" unicode="&#58960;" d="M837.1-12.4H188.9c-50.1 0-90.9 40.8-90.9 90.9v7.6l152.4 193c7.5 9.5 21.4 11.2 30.9 3.6 9.5-7.5 11.2-21.4 3.6-30.9L142.5 71.5c3.4-22.6 22.9-39.9 46.4-39.9h648.2c23.5 0 43 17.4 46.4 39.9L741.1 251.8c-7.5 9.5-5.9 23.4 3.6 30.9 9.6 7.5 23.4 5.9 30.9-3.6l152.3-193v-7.6c0.1-50.2-40.7-90.9-90.8-90.9zM509.4 145.7h-0.5c-12.2 0.1-23.7 5.7-31.4 15.2-63.9 79-212.6 273.5-212.6 371.3 0 128.9 112.9 237.7 246.6 237.7 135.3 0 249.6-108.9 249.6-237.7 0-101.2-154.2-293.9-220.5-372-7.8-9.2-19.2-14.5-31.2-14.5z m2.1 580.3c-109.8 0-202.6-88.7-202.6-193.7 0-67.9 103.1-220 200.5-340.8C610.3 310.7 717.1 462 717.1 532.2c0 105-94.2 193.8-205.6 193.8zM513 400.9c-61 0-110.6 49.6-110.6 110.6S452 622.1 513 622.1s110.6-49.6 110.6-110.6S574 400.9 513 400.9z m0 177.2c-36.7 0-66.6-29.9-66.6-66.6s29.9-66.6 66.6-66.6c36.7 0 66.6 29.9 66.6 66.6s-29.9 66.6-66.6 66.6z"  horiz-adv-x="1024" />

    
    <glyph glyph-name="daishiyong" unicode="&#58922;" d="M512-128a512 512 0 1 0 512 512 512 512 0 0 0-512-512z m0 930.909091a418.909091 418.909091 0 1 1 418.909091-418.909091A418.909091 418.909091 0 0 1 512 802.909091z m138.914909-575.301818L488.727273 320.349091a46.056727 46.056727 0 0 0-21.666909 52.037818A46.545455 46.545455 0 0 0 465.454545 384V663.272727a46.545455 46.545455 0 0 0 93.09091 0v-275.781818l139.170909-79.569454a46.126545 46.126545 0 0 0 17.128727-63.348364 47.057455 47.057455 0 0 0-63.930182-16.965818zM208.081455 505.576727l-44.334546 14.592a373.061818 373.061818 0 0 0 250.205091 218.251637l14.778182-43.915637a326.656 326.656 0 0 1-220.648727-188.928z"  horiz-adv-x="1024" />

    
    <glyph glyph-name="dongtai_" unicode="&#58914;" d="M661.3 512l-234.7-42.7L384 234.7l234.7 42.7L661.3 512zM522.7 320c-29.5 0-53.3 23.9-53.3 53.3 0 29.5 23.9 53.3 53.3 53.3 29.5 0 53.3-23.9 53.3-53.3S552.1 320 522.7 320zM512 832C264.6 832 64 631.4 64 384s200.6-448 448-448 448 200.6 448 448S759.4 832 512 832z m166.3-614.3l-379.6-68.4L367 529l379.6 68.4-68.3-379.7z"  horiz-adv-x="1024" />

    


  </font>
</defs>
</svg>
